# xmcd
#
# Track frame offsets: 
#        150
#        13962
#        26840
#        42862
#        58522
#        79487
#        103652
#        123990
#        137775
#        167535
#        186680
#        200162
#
# Disc length: 2763 seconds
#
# Revision: 0
# Processed by: cddbd v1.5.2PL0 Copyright (c) Steve Scherf et al.
# Submitted via: ExactAudioCopy v0.99pb4
#
DISCID=b20ac90c
DTITLE=Jonathan Candler - When It Rains It Pours
DYEAR=2005
DGENRE=Instrumental
TTITLE0=Orange Blossom Special
TTITLE1=Steel Guitar Rag
TTITLE2=Release Me
TTITLE3=I love You Because
TTITLE4=Something About That Name
TTITLE5=Relaxin'
TTITLE6=Lean On It
TTITLE7=Closer Walk With Thee
TTITLE8=Watch What Happens
TTITLE9=Twelve Bar Blues
TTITLE10=Mothers and Fathers
TTITLE11=When It Rains It Pours
EXTD=
EXTT0=
EXTT1=
EXTT2=
EXTT3=
EXTT4=
EXTT5=
EXTT6=
EXTT7=
EXTT8=
EXTT9=
EXTT10=
EXTT11=
PLAYORDER=
